<svg xmlns="http://www.w3.org/2000/svg" width="50.758" height="49.736" viewBox="0 0 50.758 49.736">
  <g id="Group_476" data-name="Group 476" transform="translate(-570.437 -228.984)">
    <g id="Group_461" data-name="Group 461" transform="translate(574.462 272.997)">
      <g id="Group_325" data-name="Group 325">
        <path id="Path_247" data-name="Path 247" d="M9.261,80.741A.221.221,0,0,1,9.5,80.5h.361a.331.331,0,0,1,.3.181l1.2,2.771c.12.3.3.723.3.723h0s.12-.422.241-.723l1.2-2.771a.278.278,0,0,1,.3-.181h.361c.181,0,.241.06.241.241l.422,5.06c0,.181-.06.241-.241.241H13.96c-.181,0-.241-.06-.241-.241l-.241-3.253a3.543,3.543,0,0,1,0-.843h0s-.181.482-.3.843l-1.024,2.289a.429.429,0,0,1-.361.181H11.55a.331.331,0,0,1-.3-.181l-1.024-2.289c-.12-.3-.3-.843-.3-.843h0v.843L9.683,85.8a.221.221,0,0,1-.241.241h-.3A.221.221,0,0,1,8.9,85.8Z" transform="translate(-8.9 -80.38)" fill="#fff"/>
        <path id="Path_248" data-name="Path 248" d="M21.057,80.641c.06-.12.12-.241.3-.241h.361a.307.307,0,0,1,.3.241l1.807,5.06c.06.181,0,.3-.241.3h-.241a.307.307,0,0,1-.3-.241l-.482-1.385H20.455l-.482,1.385c-.06.12-.12.241-.3.241h-.241c-.181,0-.3-.12-.241-.3Zm1.325,3.072-.6-1.747a7.689,7.689,0,0,1-.241-.783h0a7.689,7.689,0,0,1-.241.783l-.6,1.747Z" transform="translate(-12.985 -80.34)" fill="#fff"/>
        <path id="Path_249" data-name="Path 249" d="M28.455,83.693,26.768,80.8c-.12-.181,0-.3.181-.3h.3a.331.331,0,0,1,.3.181l.9,1.626a7.234,7.234,0,0,1,.361.723h0l.361-.723.9-1.626a.331.331,0,0,1,.3-.181h.3c.181,0,.3.12.181.3l-1.687,2.891V85.8a.221.221,0,0,1-.241.241H28.7c-.181,0-.241-.06-.241-.241Z" transform="translate(-15.986 -80.38)" fill="#fff"/>
        <path id="Path_250" data-name="Path 250" d="M35.1,80.741c0-.181.06-.241.241-.241h.3a.331.331,0,0,1,.3.181l2.349,3.434c.181.3.482.783.482.783h0s-.06-.482-.06-.783V80.741a.221.221,0,0,1,.241-.241h.3c.181,0,.241.06.241.241v5c0,.181-.06.241-.241.241h-.3a.331.331,0,0,1-.3-.181L36.3,82.367c-.181-.3-.482-.783-.482-.783h0s.06.482.06.783V85.68c0,.181-.06.241-.241.241H35.4c-.181,0-.241-.06-.241-.241V80.741Z" transform="translate(-19.318 -80.38)" fill="#fff"/>
        <path id="Path_251" data-name="Path 251" d="M47.13,80.3a2.754,2.754,0,0,1,2.831,2.831,2.832,2.832,0,1,1-5.662,0A2.687,2.687,0,0,1,47.13,80.3Zm0,5a2.061,2.061,0,0,0,2.048-2.169,2.049,2.049,0,1,0-4.1,0A2.061,2.061,0,0,0,47.13,85.3Z" transform="translate(-22.975 -80.3)" fill="#fff"/>
        <path id="Path_252" data-name="Path 252" d="M57.731,80.3a2.754,2.754,0,0,1,2.831,2.831,2.832,2.832,0,1,1-5.662,0A2.72,2.72,0,0,1,57.731,80.3Zm0,5a2.061,2.061,0,0,0,2.048-2.169,2.049,2.049,0,1,0-4.1,0A2.061,2.061,0,0,0,57.731,85.3Z" transform="translate(-27.191 -80.3)" fill="#fff"/>
        <path id="Path_253" data-name="Path 253" d="M66.367,81.163H64.741a.221.221,0,0,1-.241-.241v-.181c0-.181.06-.241.241-.241h4.1c.181,0,.241.06.241.241v.181c0,.181-.06.241-.241.241H67.211v4.578a.221.221,0,0,1-.241.241h-.361c-.181,0-.241-.06-.241-.241Z" transform="translate(-31.008 -80.38)" fill="#fff"/>
        <path id="Path_254" data-name="Path 254" d="M73.2,80.741c0-.181.06-.241.241-.241h.241c.181,0,.241.06.241.241v2.169h2.891V80.741a.221.221,0,0,1,.241-.241H77.3c.181,0,.241.06.241.241v5c0,.181-.06.241-.241.241h-.241c-.181,0-.241-.06-.241-.241V83.572H73.923v2.169c0,.181-.06.241-.241.241h-.241c-.181,0-.241-.06-.241-.241Z" transform="translate(-34.468 -80.38)" fill="#fff"/>
      </g>
    </g>
    <g id="Group_610" data-name="Group 610" transform="translate(373 465)">
      <path id="Path_997" data-name="Path 997" d="M28.185,34.078h0a5.251,5.251,0,0,1-6-4.268L18.149,6.048a5.251,5.251,0,0,1,4.268-6h0a5.251,5.251,0,0,1,6,4.268L32.453,28.08A5.251,5.251,0,0,1,28.185,34.078Z" transform="translate(190.276 -235.48)" fill="#fff" stroke="#fff" stroke-width="1"/>
      <path id="Path_998" data-name="Path 998" d="M53.273,34.078h0a5.251,5.251,0,0,1-6-4.268L43.237,6.048a5.168,5.168,0,0,1,4.21-6h0a5.251,5.251,0,0,1,6,4.268L57.483,28.08A5.168,5.168,0,0,1,53.273,34.078Z" transform="translate(179.665 -235.48)" fill="#fff" stroke="#fff" stroke-width="1"/>
      <path id="Path_999" data-name="Path 999" d="M3.132,33.7h0A5.227,5.227,0,0,1,.479,26.837l10.439-23.7A5.227,5.227,0,0,1,17.782.479h0a5.227,5.227,0,0,1,2.653,6.863l-10.5,23.7A5.133,5.133,0,0,1,3.132,33.7Z" transform="translate(197.911 -235.542)" fill="#74141e" stroke="#fff" stroke-width="1"/>
      <path id="Path_1000" data-name="Path 1000" d="M28.132,33.7h0a5.227,5.227,0,0,1-2.653-6.863l10.439-23.7A5.227,5.227,0,0,1,42.782.479h0a5.227,5.227,0,0,1,2.653,6.863L35,31.047A5.216,5.216,0,0,1,28.132,33.7Z" transform="translate(187.33 -235.542)" fill="#586d88" stroke="#fff" stroke-width="1"/>
      <path id="Path_1001" data-name="Path 1001" d="M53.132,33.7h0a5.227,5.227,0,0,1-2.653-6.863l10.5-23.7A5.227,5.227,0,0,1,67.839.479h0a5.227,5.227,0,0,1,2.653,6.863L60,31.047A5.179,5.179,0,0,1,53.132,33.7Z" transform="translate(176.749 -235.542)" fill="#f3b541" stroke="#fff" stroke-width="1"/>
    </g>
  </g>
</svg>
