<svg xmlns="http://www.w3.org/2000/svg" width="308.985" height="60.277" viewBox="0 0 308.985 60.277">
  <g id="Group_466" data-name="Group 466" transform="translate(0.527 0.527)">
    <g id="Group_465" data-name="Group 465">
      <g id="Group_455" data-name="Group 455" transform="translate(107.358 15.5)">
        <path id="Path_277" data-name="Path 277" d="M101.4,18.5a.576.576,0,0,1,.6-.6h.4c.4,0,.6.1.7.5l7.4,15.9c.6,1.3,1.3,2.9,1.3,2.9h.1s.7-1.7,1.3-2.9l7.4-15.9a.752.752,0,0,1,.7-.5h.4a.53.53,0,0,1,.6.6l2,24.8c0,.4-.2.7-.6.7h-.3a.53.53,0,0,1-.6-.6l-1.6-19.3c-.1-1.3-.1-3.5-.1-3.5H121s-.7,2.2-1.3,3.5L113,38.5a.752.752,0,0,1-.7.5h-.6c-.4,0-.6-.1-.7-.5l-6.7-14.4c-.6-1.2-1.4-3.5-1.4-3.5h-.1s0,2.3-.1,3.5L101,43.5a.576.576,0,0,1-.6.6H100c-.4,0-.6-.2-.6-.7Z" transform="translate(-99.4 -17.5)" fill="#fff"/>
        <path id="Path_278" data-name="Path 278" d="M137.5,18.5a.64.64,0,0,1,.7-.5h.7a.64.64,0,0,1,.7.5l9.3,24.8c.1.4,0,.7-.5.7H148a.64.64,0,0,1-.7-.5L144,35H133l-3.2,8.5a.64.64,0,0,1-.7.5h-.4c-.5,0-.7-.3-.5-.7Zm6,15-4-10.6c-.4-1.1-1-3.1-1-3.1h-.1s-.6,2-1,3.1l-4,10.6Z" transform="translate(-99.4 -17.5)" fill="#fff"/>
        <path id="Path_279" data-name="Path 279" d="M157.4,32.7l-8.4-14c-.3-.4-.1-.7.4-.7h.4a.67.67,0,0,1,.7.4l5.9,9.9c.7,1.3,1.6,2.9,1.6,2.9h.1a27.1,27.1,0,0,1,1.6-2.9l5.9-9.9a.755.755,0,0,1,.7-.4h.4c.5,0,.7.3.4.7l-8.4,14V43.4a.53.53,0,0,1-.6.6H158a.53.53,0,0,1-.6-.6Z" transform="translate(-99.4 -17.5)" fill="#fff"/>
        <path id="Path_280" data-name="Path 280" d="M172.2,18.6a.53.53,0,0,1,.6-.6h.4a.909.909,0,0,1,.8.4l14.6,20.1c.9,1.2,2.1,3.3,2.1,3.3h.1s-.2-2-.2-3.3V18.6a.53.53,0,0,1,.6-.6h.3a.53.53,0,0,1,.6.6V43.4a.53.53,0,0,1-.6.6h-.4a.909.909,0,0,1-.8-.4L175.7,23.5c-.9-1.2-2.1-3.3-2.1-3.3h-.1s.2,2,.2,3.3V43.3a.53.53,0,0,1-.6.6h-.3a.53.53,0,0,1-.6-.6Z" transform="translate(-99.4 -17.5)" fill="#fff"/>
        <path id="Path_281" data-name="Path 281" d="M211.3,17.5a13.024,13.024,0,0,1,13.2,13.3c0,7.7-5.7,13.7-13.2,13.7s-13.2-6-13.2-13.7A13.024,13.024,0,0,1,211.3,17.5Zm0,25.5c6.6,0,11.5-5.3,11.5-12.2,0-6.7-4.9-11.8-11.5-11.8s-11.5,5.1-11.5,11.8C199.8,37.7,204.7,43,211.3,43Z" transform="translate(-99.4 -17.5)" fill="#fff"/>
        <path id="Path_282" data-name="Path 282" d="M241.8,17.5A13.024,13.024,0,0,1,255,30.8c0,7.7-5.7,13.7-13.2,13.7s-13.2-6-13.2-13.7A13.024,13.024,0,0,1,241.8,17.5Zm0,25.5c6.6,0,11.5-5.3,11.5-12.2,0-6.7-4.9-11.8-11.5-11.8s-11.5,5.1-11.5,11.8C230.3,37.7,235.2,43,241.8,43Z" transform="translate(-99.4 -17.5)" fill="#fff"/>
        <path id="Path_283" data-name="Path 283" d="M265.4,19.4h-9.1a.53.53,0,0,1-.6-.6v-.2a.53.53,0,0,1,.6-.6h19.8a.53.53,0,0,1,.6.6v.2a.53.53,0,0,1-.6.6H267v24a.53.53,0,0,1-.6.6H266a.53.53,0,0,1-.6-.6Z" transform="translate(-99.4 -17.5)" fill="#fff"/>
        <path id="Path_284" data-name="Path 284" d="M280.8,18.6a.53.53,0,0,1,.6-.6h.3a.53.53,0,0,1,.6.6V30.2H299V18.6a.53.53,0,0,1,.6-.6h.3a.53.53,0,0,1,.6.6V43.4a.53.53,0,0,1-.6.6h-.3a.53.53,0,0,1-.6-.6V31.7H282.4V43.4a.53.53,0,0,1-.6.6h-.3a.53.53,0,0,1-.6-.6V18.6Z" transform="translate(-99.4 -17.5)" fill="#fff"/>
      </g>
      <path id="Path_297" data-name="Path 297" d="M35.6,59.1h0a9.1,9.1,0,0,1-10.4-7.4l-7-41.2A9.1,9.1,0,0,1,25.6.1h0A9.1,9.1,0,0,1,36,7.5l7,41.2A9.1,9.1,0,0,1,35.6,59.1Z" transform="translate(-0.042 0.02)" fill="#fff" stroke="#fff" stroke-width="1"/>
      <path id="Path_295" data-name="Path 295" d="M60.7,59.1h0a9.1,9.1,0,0,1-10.4-7.4l-7-41.2A8.96,8.96,0,0,1,50.6.1h0A9.1,9.1,0,0,1,61,7.5l7,41.2A8.96,8.96,0,0,1,60.7,59.1Z" transform="translate(-0.042 0.02)" fill="#fff" stroke="#fff" stroke-width="1"/>
      <path id="Path_298" data-name="Path 298" d="M5.4,58.4h0A9.063,9.063,0,0,1,.8,46.5L18.9,5.4A9.063,9.063,0,0,1,30.8.8h0a9.063,9.063,0,0,1,4.6,11.9L17.2,53.8A8.9,8.9,0,0,1,5.4,58.4Z" transform="translate(-0.042 -0.042)" fill="#74141e" stroke="#fff" stroke-width="1"/>
      <path id="Path_296" data-name="Path 296" d="M30.4,58.4h0a9.063,9.063,0,0,1-4.6-11.9L43.9,5.4A9.063,9.063,0,0,1,55.8.8h0a9.063,9.063,0,0,1,4.6,11.9L42.3,53.8A9.043,9.043,0,0,1,30.4,58.4Z" transform="translate(-0.042 -0.042)" fill="#586d88" stroke="#fff" stroke-width="1"/>
      <path id="Path_294" data-name="Path 294" d="M55.4,58.4h0a9.063,9.063,0,0,1-4.6-11.9L69,5.4A9.063,9.063,0,0,1,80.9.8h0a9.063,9.063,0,0,1,4.6,11.9L67.3,53.8A8.979,8.979,0,0,1,55.4,58.4Z" transform="translate(-0.042 -0.042)" fill="#f3b541" stroke="#fff" stroke-width="1"/>
    </g>
  </g>
</svg>
