<svg xmlns="http://www.w3.org/2000/svg" width="50" height="41.814" viewBox="0 0 50 41.814">
  <g id="Group_326" data-name="Group 326" transform="translate(-1241 -1201)">
    <g id="Group_452" data-name="Group 452" transform="translate(-70 167)">
      <path id="iconfinder_architecture-interior-27_809104" d="M48.086,4A1.975,1.975,0,0,0,46,6.091V27H37.633V20.726h4.181V16.544H8.363v4.181h4.181V27H4.181V6.091A1.975,1.975,0,0,0,2.091,4,1.975,1.975,0,0,0,0,6.091V43.724a1.975,1.975,0,0,0,2.091,2.091,1.975,1.975,0,0,0,2.091-2.091V33.27h8.363V43.724a1.975,1.975,0,0,0,2.091,2.091,1.975,1.975,0,0,0,2.091-2.091V27H33.451V43.933a1.874,1.874,0,0,0,1.882,1.882h.209a1.874,1.874,0,0,0,1.882-1.882V33.27h8.363V43.724a2.091,2.091,0,0,0,4.181,0V6.091A1.73,1.73,0,0,0,48.086,4ZM12.544,31.179H4.181V29.089h8.363Zm20.907-8.363H16.726V20.726H33.451ZM46,31.179H37.633V29.089H46Z" transform="translate(1311 1030)" fill="#8aa1bf"/>
    </g>
  </g>
</svg>
