<svg xmlns="http://www.w3.org/2000/svg" width="50" height="59.185" viewBox="0 0 50 59.185">
  <g id="XMLID_134_" transform="translate(-44.7 -6)">
    <g id="XMLID_139_" transform="translate(44.7 6)">
      <path id="XMLID_157_" d="M105.692,239.6H93.5v3.587h12.192Zm-6.356,2.379a.58.58,0,1,1,.58-.58A.581.581,0,0,1,99.336,241.979Z" transform="translate(-87.724 -211.949)" fill="#8aa1bf"/>
      <path id="XMLID_154_" d="M259.632,239.9H239v6.806h20.632Zm-10.641,4.06a.58.58,0,1,1,.58-.58A.589.589,0,0,1,248.99,243.96Z" transform="translate(-216.001 -212.213)" fill="#8aa1bf"/>
      <path id="XMLID_148_" d="M93.172,202.6H46.251a1.556,1.556,0,0,0-1.551,1.551v2.4h1.338v31.96H67.084V218.3H88.9v20.218h3.954v-31.96H94.7v-2.4A1.514,1.514,0,0,0,93.172,202.6ZM54.714,234.56H50V214.981h4.723V234.56Zm8.428,0H58.679V214.981h4.463Zm0-23.532H50v-4.474H63.142Zm25.769,3.314H67.1v-7.789H88.911Z" transform="translate(-44.7 -179.328)" fill="#8aa1bf"/>
      <path id="XMLID_147_" d="M111.4,107.809c0-.178,0-.343-.012-.509h-8.475c-.012.166-.012.343-.012.509,0,2.7,1.361,7.079,3.2,8.381a1.772,1.772,0,0,0-.947,1.243.261.261,0,0,0,.012.095h4c0-.036.012-.059.012-.095a1.772,1.772,0,0,0-.947-1.243C110.038,114.887,111.4,110.508,111.4,107.809Z" transform="translate(-96.011 -95.309)" fill="#8aa1bf"/>
      <path id="XMLID_146_" d="M99.146,8.782C98.79,7.125,97.749,6,96.577,6H92.848c-1.172,0-2.214,1.125-2.569,2.782L88.8,15.529h11.837Z" transform="translate(-83.58 -6)" fill="#8aa1bf"/>
      <path id="XMLID_143_" d="M97.493,312.6H93.8v18.418h3.693Zm-1.918,9.789a.58.58,0,1,1,.58-.58A.573.573,0,0,1,95.576,322.389Z" transform="translate(-87.988 -276.308)" fill="#8aa1bf"/>
      <path id="XMLID_140_" d="M169.887,312.6H166.3v18.418h3.587Zm-1.87,9.789a.58.58,0,1,1,.58-.58A.573.573,0,0,1,168.016,322.389Z" transform="translate(-151.906 -276.308)" fill="#8aa1bf"/>
    </g>
    <path id="XMLID_138_" d="M319.962,266.323a.462.462,0,0,1-.462-.462.455.455,0,0,1,.462-.462.462.462,0,1,1,0,.923Z" transform="translate(-242.272 -228.695)" fill="#8aa1bf"/>
    <path id="XMLID_137_" d="M139.362,251.823a.462.462,0,0,1-.462-.462.462.462,0,1,1,.462.462Z" transform="translate(-83.05 -215.911)" fill="#8aa1bf"/>
    <path id="XMLID_136_" d="M177.362,387.423a.462.462,0,0,1,0-.923.462.462,0,0,1,0,.923Z" transform="translate(-116.552 -335.46)" fill="#8aa1bf"/>
    <path id="XMLID_135_" d="M105.362,387.423a.462.462,0,1,1,0-.923.462.462,0,0,1,0,.923Z" transform="translate(-53.074 -335.46)" fill="#8aa1bf"/>
  </g>
</svg>
