<svg xmlns="http://www.w3.org/2000/svg" width="43.977" height="40.457" viewBox="0 0 43.977 40.457">
  <g id="Group_494" data-name="Group 494" transform="translate(0.398 1.013)">
    <path id="Path_323" data-name="Path 323" d="M-2333.957-282.738h0l21.109,3.923,21.182-3.923-9.274,23.406h-25.968Z" transform="translate(2334.446 298.276)" fill="#8aa1bf" stroke="#fff" stroke-width="1"/>
    <path id="Path_324" data-name="Path 324" d="M-2313.531-272.855c1.314-2.16,2.875-3.2,5.407-2.875,2.393.455,2.705,3.93,2.705,3.93l-.26.552-7.852,5.731s-6.445-4.39-7.868-5.1-.181-5.036,2.992-4.858A6.784,6.784,0,0,1-2313.531-272.855Z" transform="translate(2334.402 299.715)" fill="#842c68" stroke="#fff" stroke-width="1"/>
    <path id="Path_325" data-name="Path 325" d="M-2288.311-283.1l-23.512-1.544-17.966,1.4-1.8.141,21.453,4.08Z" transform="translate(2331.592 297.851)" fill="#8aa1bf" stroke="#fff" stroke-width="1"/>
    <path id="Path_326" data-name="Path 326" d="M0,14.94l1.712-1.918,8.478-9.5s1.1-1.2,1.137-1.223l.325-.3.594-.393C12.9,1.155,15.38.05,20.786,0c7.765-.069,9.533,1.882,9.533,1.882L42.149,15.6" transform="matrix(1, -0.017, 0.017, 1, 0.365, 0.736)" fill="none" stroke="#fff" stroke-linejoin="round" stroke-width="2" stroke-dasharray="0.5 0.5"/>
  </g>
</svg>
