<svg xmlns="http://www.w3.org/2000/svg" width="40.5" height="37.844" viewBox="0 0 40.5 37.844">
  <g id="Group_495" data-name="Group 495" transform="translate(0.5)">
    <path id="Subtraction_8" data-name="Subtraction 8" d="M36.451,17.958H.063c-.011-.145-.021-.3-.032-.485C.011,17.1,0,16.708,0,16.3A20.52,20.52,0,0,1,6.981.633l3.883,5c.008.01.867,1.064,1.131,1.309a3.177,3.177,0,0,0,.728.087c1.418,0,2.953-1.052,4.831-3.312l-1.335-.795a11.528,11.528,0,0,0,1.536.1,11.556,11.556,0,0,0,1.167-.059l-1.368.815C19.794,6.473,20.9,6.813,22.223,7a1.3,1.3,0,0,0,.316.037,1.81,1.81,0,0,0,1.232-.6L28.751,0a19.629,19.629,0,0,1,5.641,6.973A21.421,21.421,0,0,1,36.513,16.3c0,.392-.01.787-.03,1.174-.01.188-.02.341-.032.484Z" transform="translate(0 19.386)" fill="#8aa1bf" stroke="#fff" stroke-width="1"/>
    <path id="Path_345" data-name="Path 345" d="M-2135.034-319.792" transform="translate(2175.034 356.652)" fill="none" stroke="#fff" stroke-width="1"/>
    <g id="Ellipse_14" data-name="Ellipse 14" transform="translate(15.767 26.556)" fill="#8aa1bf" stroke="#fff" stroke-width="3">
      <circle cx="1.66" cy="1.66" r="1.66" stroke="none"/>
      <circle cx="1.66" cy="1.66" r="0.16" fill="none"/>
    </g>
    <g id="Ellipse_15" data-name="Ellipse 15" transform="translate(15.767 31.535)" fill="#8aa1bf" stroke="#fff" stroke-width="3">
      <circle cx="1.66" cy="1.66" r="1.66" stroke="none"/>
      <circle cx="1.66" cy="1.66" r="0.16" fill="none"/>
    </g>
    <path id="Path_346" data-name="Path 346" d="M-2150-326.449c.125,12.9,0,13.327,0,13.327" transform="translate(2167.427 350.6)" fill="none" stroke="#fff" stroke-width="0.2"/>
    <g id="Group_485" data-name="Group 485" transform="translate(7.023 18.316)">
      <g id="Group_483" data-name="Group 483" transform="translate(0)">
        <path id="Path_337" data-name="Path 337" d="M-2150-325.694c2.151,2.19,3.243,2.526,4.6,2.686a1.8,1.8,0,0,0,1.525-.466l5.057-5.534-1.526-1.555" transform="translate(2160.821 330.562)" fill="#842c68" stroke="#fff" stroke-linejoin="bevel" stroke-width="1"/>
        <path id="Path_338" data-name="Path 338" d="M-2138.929-325.748c-2.44,2.481-4.045,2.975-5.478,2.69-.263-.207-1.115-1.092-1.115-1.092l-4.478-4.874,1.511-1.537" transform="translate(2150 330.562)" fill="#842c68" stroke="#fff" stroke-linejoin="bevel" stroke-width="1"/>
      </g>
      <path id="Path_339" data-name="Path 339" d="M-2169.763-330.427l-10.348,4.342-10.275-4.342" transform="translate(2190.986 330.615)" fill="none" stroke="#fff" stroke-linejoin="bevel" stroke-width="1"/>
    </g>
    <g id="Ellipse_16" data-name="Ellipse 16" transform="translate(7.469)" fill="#8aa1bf" stroke="#fff" stroke-width="1">
      <circle cx="9.959" cy="9.959" r="9.959" stroke="none"/>
      <circle cx="9.959" cy="9.959" r="9.459" fill="none"/>
    </g>
  </g>
</svg>
